<?xml version="1.0" encoding="UTF-8"?> <svg xmlns="http://www.w3.org/2000/svg" id="Слой_1" data-name="Слой 1" viewBox="0 0 216.98 172.65"> <defs> <style>.cls-1{fill:#fbd400;}.cls-2{fill:#009fe3;}.cls-3{fill:#fe99b9;stroke:#000;stroke-miterlimit:10;stroke-width:2.59px;}</style> </defs> <title>store_icon</title> <path d="M201.89,27.54a12.22,12.22,0,0,0,1.25.64,3.8,3.8,0,0,1,2.14,5.21c-1,2.67-3.19,4.31-5.28,6-1.79,1.46-3.62,2.87-5.65,4.47a8.25,8.25,0,0,0,1.23.49,4.36,4.36,0,0,1,3.57,4.16,4.64,4.64,0,0,1-1.77,3.83,19.87,19.87,0,0,1-6,3.22c-2.57.83-5.13,1.7-7.63,2.71a78.89,78.89,0,0,0-9.92,4.32c-5,2.86-10.09,5.76-14.31,9.82a20.1,20.1,0,0,1-6.8,4c-1.71.67-4.53-1.39-4.53-3.29a29.84,29.84,0,0,1,1.4-9.42c.7-2.17,1.11-4.45,2-6.55,1.35-3.35,2.91-6.61,4.5-9.86s3.09-6.25,4.86-9.24A75.47,75.47,0,0,1,166,30.73c2.3-3,4.72-5.9,7.22-8.73a44,44,0,0,1,4.06-3.65,54,54,0,0,1,5.25-4.58c4.24-2.86,8.81-4.93,14.13-4.23a37.84,37.84,0,0,1,5.58,1.15c2.94.85,4.79,4.37,4.81,7.4,0,4-2.07,6.51-4.81,8.82a1.66,1.66,0,0,0-.26.27A1.57,1.57,0,0,0,201.89,27.54ZM200.06,33l-.26-.35A44,44,0,0,0,195,34.39c-4.37,2.2-8.65,4.58-13,6.79a5.52,5.52,0,0,1-2.74.45A1.51,1.51,0,0,1,178,39.56a3.76,3.76,0,0,1,1.05-1.66,73.36,73.36,0,0,1,6.74-4.83,104.69,104.69,0,0,0,14.07-9.62,7.87,7.87,0,0,0,2.93-6.23,2.66,2.66,0,0,0-2.16-2.88,14.48,14.48,0,0,0-7.28,0,12.13,12.13,0,0,0-2.5,1c-.55.26-1.08.57-1.63.84A60,60,0,0,0,183.58,19a22.66,22.66,0,0,0-3.72,3.29c-2.52,2.52-5.09,5-7.42,7.68a82.24,82.24,0,0,0-6,7.81,78,78,0,0,0-4.31,7.4c-1.3,2.45-2.43,5-3.6,7.52a52,52,0,0,0-2.77,6.21c-1.12,3.59-1.95,7.27-2.88,10.92a10.2,10.2,0,0,0-.13,1.7,10.23,10.23,0,0,0,1.29-.67c2.24-1.7,4.46-3.42,6.69-5.12A64.6,64.6,0,0,1,173.17,58c2.93-1.34,5.86-2.67,8.82-3.93,1.9-.82,3.84-1.53,5.78-2.24,1.36-.5,2.77-.87,4.1-1.42a11.19,11.19,0,0,0,1.92-1.27l-.18-.51a12.82,12.82,0,0,0-2.53-.17c-4.25.52-8.49,1.07-12.72,1.72a10.18,10.18,0,0,0-3,1.13,3.37,3.37,0,0,1-4.48-1.44c-.6-1.22.21-2.64,2-3.25,2.36-.79,4.79-1.37,7.15-2.15,3.19-1.06,6.38-2.13,9.49-3.41a20.19,20.19,0,0,0,3.79-2.53c1.42-1,2.84-2,4.19-3.12C198.44,34.66,199.22,33.78,200.06,33Z"></path> <path class="cls-1" d="M200.06,33c-.84.82-1.62,1.7-2.52,2.44-1.35,1.1-2.77,2.11-4.19,3.12a20.19,20.19,0,0,1-3.79,2.53c-3.11,1.28-6.3,2.35-9.49,3.41-2.36.78-4.79,1.36-7.15,2.15-1.84.61-2.65,2-2,3.25a3.37,3.37,0,0,0,4.48,1.44,10.18,10.18,0,0,1,3-1.13c4.23-.65,8.47-1.2,12.72-1.72a12.82,12.82,0,0,1,2.53.17l.18.51a11.19,11.19,0,0,1-1.92,1.27c-1.33.55-2.74.92-4.1,1.42-1.94.71-3.88,1.42-5.78,2.24-3,1.26-5.89,2.59-8.82,3.93a64.6,64.6,0,0,0-12.41,7.77c-2.23,1.7-4.45,3.42-6.69,5.12a10.23,10.23,0,0,1-1.29.67,10.2,10.2,0,0,1,.13-1.7c.93-3.65,1.76-7.33,2.88-10.92a52,52,0,0,1,2.77-6.21c1.17-2.52,2.3-5.07,3.6-7.52a78,78,0,0,1,4.31-7.4,82.24,82.24,0,0,1,6-7.81c2.33-2.68,4.9-5.16,7.42-7.68A22.66,22.66,0,0,1,183.58,19a60,60,0,0,1,5.68-2.82c.55-.27,1.08-.58,1.63-.84a12.13,12.13,0,0,1,2.5-1,14.48,14.48,0,0,1,7.28,0,2.66,2.66,0,0,1,2.16,2.88,7.87,7.87,0,0,1-2.93,6.23,104.69,104.69,0,0,1-14.07,9.62,73.36,73.36,0,0,0-6.74,4.83A3.76,3.76,0,0,0,178,39.56a1.51,1.51,0,0,0,1.18,2.07,5.52,5.52,0,0,0,2.74-.45c4.37-2.21,8.65-4.59,13-6.79a44,44,0,0,1,4.82-1.78Z"></path> <path d="M20.47,69.62c-1.32-.45-2.45-.94-3.63-1.23A8.65,8.65,0,0,1,10,59.3a7.13,7.13,0,0,1,2.31-3.83c2.11-2,4.28-4.14,7.11-5.18a65,65,0,0,1,7.26-2.15,43,43,0,0,1,7.09-1.25,55.85,55.85,0,0,1,6.95.27A41.89,41.89,0,0,1,53.52,50.1,39.61,39.61,0,0,1,59,53a47.89,47.89,0,0,1,5.14,3.25c2.09,1.62,4,3.42,6,5.22,1.13,1,2.16,2.19,3.19,3.34a38.73,38.73,0,0,1,8.52,14.75,17.22,17.22,0,0,0,1.38,2.79c.89,1.74,1.68,3.49.32,5.36a1,1,0,0,0-.09.24c-.86,2.85-1.62,3.14-4.42,1.76a55.56,55.56,0,0,0-6.49-3.06,41.8,41.8,0,0,0-7.74-1.79,42.52,42.52,0,0,0-7.14-.24c-3.56.11-7.1.41-10.66.59a34.25,34.25,0,0,1-5,.05c-2.68-.27-4-1.87-4-4.54,0-1.14-.73-.88-1.49-.81-4,.33-8,.89-12,.08a11.54,11.54,0,0,1-4.43-2.14c-2.28-1.68-2.05-4.82-.45-7.18C19.88,70.34,20.14,70,20.47,69.62ZM80.28,84.87a5.12,5.12,0,0,0-.15-.75c-1.67-4-3.13-8-5.59-11.66a44.72,44.72,0,0,0-7.8-8.71,61.9,61.9,0,0,0-10.91-7.82A35.48,35.48,0,0,0,47,52.58a44,44,0,0,0-13.36-1.2c-3.78.29-7.33,1.4-11,2.26-2.69.64-4.73,2.47-7,3.88A8.52,8.52,0,0,0,14,59.43a1.11,1.11,0,0,0-.23.8,4.66,4.66,0,0,0,2.69,3.59,17.61,17.61,0,0,0,6.09,1.52,70.6,70.6,0,0,0,7.67.45c3.95-.12,7.88-.62,11.83-.79,3.69-.16,7.4,0,11.09-.17A2.12,2.12,0,0,1,55.35,66a3.85,3.85,0,0,1,.08,2.55,2.17,2.17,0,0,1-2.35,1.26c-2.86-.16-5.74-.32-8.6-.25-4.11.09-8.22.43-12.33.56a19.26,19.26,0,0,0-8.19,2,3.72,3.72,0,0,0-1.46,1.43,1.35,1.35,0,0,0,.43,1.28,7.16,7.16,0,0,0,2.9,1c3,.09,6.07.07,9.09-.11,5.51-.32,10.79-2,16.15-3.12a27.32,27.32,0,0,0,4.06-1.18c.86-.33,1.63-.72,2.41,0a2.24,2.24,0,0,1,.68,2.81c-.51.91-.72,2.26-2.21,2.23a27.89,27.89,0,0,0-11.33,2.59,12.49,12.49,0,0,0-1.85,1.21l.17.47c2.68-.06,5.36,0,8-.23,4-.36,8.09-1,12.17-.5a82.85,82.85,0,0,1,9.42,1.66,41.07,41.07,0,0,1,6,2.54C79.06,84.47,79.58,84.62,80.28,84.87Z"></path> <path class="cls-1" d="M80.28,84.87c-.7-.25-1.22-.4-1.72-.61a41.07,41.07,0,0,0-6-2.54,82.85,82.85,0,0,0-9.42-1.66c-4.08-.54-8.12.14-12.17.5-2.66.23-5.34.17-8,.23l-.17-.47a12.49,12.49,0,0,1,1.85-1.21A27.89,27.89,0,0,1,56,76.52c1.49,0,1.7-1.32,2.21-2.23a2.24,2.24,0,0,0-.68-2.81c-.78-.75-1.55-.36-2.41,0a27.32,27.32,0,0,1-4.06,1.18c-5.36,1.16-10.64,2.8-16.15,3.12-3,.18-6.06.2-9.09.11a7.16,7.16,0,0,1-2.9-1,1.35,1.35,0,0,1-.43-1.28A3.72,3.72,0,0,1,24,72.11a19.26,19.26,0,0,1,8.19-2c4.11-.13,8.22-.47,12.33-.56,2.86-.07,5.74.09,8.6.25a2.17,2.17,0,0,0,2.35-1.26A3.85,3.85,0,0,0,55.35,66a2.12,2.12,0,0,0-2.24-1.21c-3.69.13-7.4,0-11.09.17-4,.17-7.88.67-11.83.79a70.6,70.6,0,0,1-7.67-.45,17.61,17.61,0,0,1-6.09-1.52,4.66,4.66,0,0,1-2.69-3.59,1.11,1.11,0,0,1,.23-.8,8.52,8.52,0,0,1,1.77-1.91c2.25-1.41,4.29-3.24,7-3.88,3.62-.86,7.17-2,11-2.26A44,44,0,0,1,47,52.58a35.48,35.48,0,0,1,8.8,3.35,61.9,61.9,0,0,1,10.91,7.82,44.72,44.72,0,0,1,7.8,8.71c2.46,3.62,3.92,7.69,5.59,11.66A5.12,5.12,0,0,1,80.28,84.87Z"></path> <path d="M115.45,62.33c.35-3,.71-6,1-9,.85-7.63,2.6-15,8.4-20.46,6-5.67,10.34-4.32,13.85,2s2.6,12.7-2.07,18.08c-4,4.6-8.2,9-12.31,13.52l-1.52,1.65c4.73-.93,9.17-1.73,13.58-2.69,3.68-.8,7.28-2,11-2.65,4.26-.73,5.73.67,6.23,4,1.12,7.44,2.64,14.82,3.79,22.25.66,4.27.63,8.65,1.41,12.89,1.86,10.13,4,20.21,6,30.31.42,2.08.66,4.2,1.19,6.25a23.57,23.57,0,0,0,1.67,4.34c.93,2,.87,2.6-1.39,3.26-6.68,1.93-13.37,3.81-20.13,5.44-10.42,2.5-20.91,4.71-31.34,7.16-5.8,1.36-11.55,3-17.33,4.42-2.26.57-3.53-.26-3.68-2.7-.33-5.55-2.83-10.56-3.63-16-.85-5.83-2.07-11.61-3.24-17.39a15.25,15.25,0,0,0-1.45-3.1c-.21-.43-.6-.94-.52-1.33,1-4.87-.58-9.53-1.24-14.24-1.17-8.37-2.65-16.69-4.1-25-.3-1.71,0-2.68,1.79-3.2,6.94-2.07,13.86-4.22,20.78-6.34,1.35-.41,2.69-.85,4.71-1.49-2-1.36-3.47-2.5-5.06-3.46A21.35,21.35,0,0,1,92.8,58.44c-1.88-4.58,1.17-9.14,6.07-10,8.24-1.39,11,3.49,14.25,10.21.6,1.24,1.23,2.47,1.84,3.71Zm15.15,88.35,1.29-.23c4-.79,8.11-1.45,12.1-2.41,5.85-1.39,11.65-3,17.47-4.51,1.47-.39,1.81-1.37,1.46-2.79-.49-2-.89-4-1.31-6-1.39-6.74-2.8-13.48-4.16-20.24-.75-3.74-1.39-7.51-2.09-11.29a7.37,7.37,0,0,0-1.43,0q-15,3.24-29.93,6.51c-1.34.29-1.65,1-1.43,2.28,1,5.6,1.73,11.23,2.81,16.8,1,5.06,2.25,10.08,3.43,15.11C129.33,146.08,130,148.24,130.6,150.68ZM119.08,111.2a5.73,5.73,0,0,0-1.12.1c-8.19,3.21-16.45,6.27-24.54,9.72-3.94,1.68-3.8,2-2.82,6.29.07.34.14.69.2,1,1.76,9.46,3.54,18.91,5.24,28.38.35,1.94,1.16,2.35,3.07,1.85,5.76-1.52,11.58-2.79,17.35-4.23,3.82-.95,7.61-2,10.93-2.91C123,138.27,121.39,124.67,119.08,111.2Zm35.64-14.77.53-.09c-1.66-9.37-3.36-18.72-4.94-28.1-.3-1.83-1.1-2.18-2.74-1.81q-14,3.21-28,6.33c-1.69.37-2.14,1.15-1.92,2.84,1.2,9,2.26,18,3.46,27,.59,4.47.63,4.25,5.11,3.23,8.23-1.88,16.52-3.5,24.8-5.18C154.45,100,154.75,99.72,154.72,96.43ZM88.92,119.3a7.24,7.24,0,0,0,1.21-.27c3.35-1.53,6.64-3.23,10.06-4.6,5.47-2.2,11-4.22,16.54-6.24,1.37-.49,1.84-1.07,1.56-2.62-.59-3.15-.9-6.34-1.29-9.51-.71-5.79-1.32-11.59-2.11-17.36-.42-3.08-2-4.11-5-3.27q-12.09,3.39-24.15,7c-1.14.34-2.28.93-2.08,2.54.3,2.4.47,4.81.84,7.2.81,5.18,1.74,10.35,2.59,15.53C87.69,111.5,88.28,115.33,88.92,119.3Zm29.69-52.75a15.9,15.9,0,0,0,1.63-.94,80.12,80.12,0,0,0,14-15.33c3.11-4.38,4.5-11.53.22-15.48-2.3-2.11-4.76-2.92-6.82-.61a33.87,33.87,0,0,0-5.39,8c-2.73,5.84-2.57,12.31-3.26,18.57C118.84,62.51,118.77,64.25,118.61,66.55Zm-5.59,2c-1.47-5.25-2.94-10.2-6.38-14.31-2.44-2.91-5.24-3.66-8.74-2.24-1.61.66-2.52,1.86-2,3.51.66,2,1.27,4.33,2.7,5.67a139.72,139.72,0,0,0,11.09,8.86c.61.46,1.81,1,2.2.7C112.55,70.34,112.72,69.26,113,68.59Z"></path> <path class="cls-2" d="M130.6,150.68c-.64-2.44-1.27-4.6-1.79-6.79-1.18-5-2.45-10-3.43-15.11-1.08-5.57-1.84-11.2-2.81-16.8-.22-1.3.09-2,1.43-2.28q15-3.24,29.93-6.51a7.37,7.37,0,0,1,1.43,0c.7,3.78,1.34,7.55,2.09,11.29,1.36,6.76,2.77,13.5,4.16,20.24.42,2,.82,4,1.31,6,.35,1.42,0,2.4-1.46,2.79-5.82,1.53-11.62,3.12-17.47,4.51-4,1-8.06,1.62-12.1,2.41Z"></path> <path class="cls-2" d="M119.08,111.2c2.31,13.47,3.88,27.07,8.31,40.24-3.32.89-7.11,2-10.93,2.91-5.77,1.44-11.59,2.71-17.35,4.23-1.91.5-2.72.09-3.07-1.85-1.7-9.47-3.48-18.92-5.24-28.38-.06-.35-.13-.7-.2-1-1-4.27-1.12-4.61,2.82-6.29,8.09-3.45,16.35-6.51,24.54-9.72A5.73,5.73,0,0,1,119.08,111.2Z"></path> <path class="cls-2" d="M154.72,96.43c0,3.29-.27,3.56-3.75,4.26-8.28,1.68-16.57,3.3-24.8,5.18-4.48,1-4.52,1.24-5.11-3.23-1.2-9-2.26-18-3.46-27-.22-1.69.23-2.47,1.92-2.84q14-3.11,28.05-6.33c1.64-.37,2.44,0,2.74,1.81,1.58,9.38,3.28,18.73,4.94,28.1Z"></path> <path class="cls-2" d="M88.92,119.3c-.64-4-1.23-7.8-1.86-11.63-.85-5.18-1.78-10.35-2.59-15.53-.37-2.39-.54-4.8-.84-7.2-.2-1.61.94-2.2,2.08-2.54q12.06-3.56,24.15-7c3-.84,4.61.19,5,3.27.79,5.77,1.4,11.57,2.11,17.36.39,3.17.7,6.36,1.29,9.51.28,1.55-.19,2.13-1.56,2.62-5.53,2-11.07,4-16.54,6.24-3.42,1.37-6.71,3.07-10.06,4.6A7.24,7.24,0,0,1,88.92,119.3Z"></path> <path class="cls-3" d="M114.52,144.46c-1.81-2.37-4,5.79.09,4.59,2.42-.71,2.27-5.24-.82-5"></path> <path class="cls-3" d="M100,131.59c-2-.54-2.65,3.57-.84,4.24,1.2.44,3.68.06,4.3-1,2-3.3-3-3.26-4.93-3.26"></path> <path class="cls-3" d="M95,92c0,3.76,5.42,3.14,6.81.54C104.1,88.24,96.19,87.76,95,92Z"></path> <path class="cls-3" d="M130,90.66c0,3.76,5.42,3.14,6.81.54C139.07,86.89,131.16,86.41,130,90.66Z"></path> <path class="cls-3" d="M93.08,106.25A2.64,2.64,0,0,0,98,107.72c.73-1.24.62-2.37-.76-3C95.47,104,94.15,104.31,93.08,106.25Z"></path> <path class="cls-3" d="M140.09,134.53A2.64,2.64,0,0,0,145,136c.73-1.24.62-2.38-.76-3C142.48,132.27,141.16,132.59,140.09,134.53Z"></path> <path class="cls-3" d="M148.05,111.22c-1.52-.23-4.15,1.83-3.74,3.52.37,1.52,1.77,1.57,3.09,1.59,1.71,0,2.67-.13,3-2.13C150.57,112.8,149.5,111.92,148.05,111.22Z"></path> <path class="cls-3" d="M110.56,121.83c-4.81-.62-4.08,5.07.18,5.65C114.23,128,113.36,123.43,110.56,121.83Z"></path> </svg> 