<?xml version="1.0" encoding="UTF-8"?> <svg xmlns="http://www.w3.org/2000/svg" id="Слой_1" data-name="Слой 1" viewBox="0 0 216.98 172.65"> <defs> <style>.cls-1,.cls-2,.cls-3,.cls-4,.cls-5{stroke:#1d1d1b;stroke-miterlimit:10;}.cls-2{fill:#fe99b9;}.cls-3{fill:#fbd400;}.cls-4,.cls-5{stroke-width:1.5px;}.cls-5{fill:#009fe3;}</style> </defs> <title>store_icon</title> <path class="cls-1" d="M53.52,110.3c.17-3.13-.28-5.88-2.76-8.3-3.63-3.53-3.48-7.16-.6-11.39a9.93,9.93,0,0,0,1.45-5,24,24,0,0,0-.74-6.58,23.3,23.3,0,0,1,.48-12.24A11.41,11.41,0,0,1,54,62.72a5.9,5.9,0,0,0,1.61-4.36c0-.31,0-.63,0-.93-.49-3.45,1.17-5.87,3.81-7.74,1.32-.93,1.37-2.27,1.64-3.64a30.85,30.85,0,0,1,1.68-6.36,5.43,5.43,0,0,1,2.89-2.33A24.41,24.41,0,0,1,70.81,36,3.81,3.81,0,0,0,74,33.28a11.09,11.09,0,0,1,13.09-7.39c2.75.55,5.5,1.3,8.42.68A9.37,9.37,0,0,0,100,24c2-1.83,4-3.56,6.77-4.14a7.28,7.28,0,0,1,5.84.95c1,.65,2.54.59,3.84.6a8.38,8.38,0,0,0,2.69-.64,5.08,5.08,0,0,1,5.41,1.29c1.13,1,2.06,2.26,3.22,3.23a4.22,4.22,0,0,0,2.32.92,20.14,20.14,0,0,1,8.55,2.57c3.12,1.64,4.6,4.5,6.42,7.14a17.65,17.65,0,0,0,5,5.22c3.94,2.48,6.74,6.09,9.31,9.82,1.85,2.67,2.5,5.94,3.5,9a24.71,24.71,0,0,1,.5,13.1,8.14,8.14,0,0,0,1.13,6.07c1.74,3,3.91,5.82,3.89,9.46a64.49,64.49,0,0,1-.59,7.85c-.4,3.28-1.21,6.53-.44,9.84a29.55,29.55,0,0,0,1.2,3.81,5.23,5.23,0,0,1-.27,4.63c-1.55,2.71-3.27,5.34-4.71,8.11a84.1,84.1,0,0,0-3.94,8.71c-1.09,2.85-2.33,5.69-4.87,7.31-2,1.25-4.51,1.61-6.81,2.29-2.62.77-5.18,1.5-7.29,3.46s-4.84,3.67-8.18,3.36a11.36,11.36,0,0,0-7.54,2.25,14.83,14.83,0,0,1-13.24,2,21.86,21.86,0,0,0-11.87,0,8.37,8.37,0,0,1-8.56-2.64,3.08,3.08,0,0,1-.79-1.31c-.78-3.51-3.66-4.56-6.55-5A6.7,6.7,0,0,1,79,140.45c-2.14-3.21-5.42-3.9-8.78-4.47-3.72-.64-6.62-2.12-7.55-6.17a39.65,39.65,0,0,0-1.3-4c-.64-1.9-2.09-3-3.58-4.28-3.12-2.64-4.32-6.3-4.29-10.36Zm2.46-.56c.12,1.82.19,3.16.3,4.5a6.59,6.59,0,0,0,3.33,5.25,9,9,0,0,1,2.93,3.29,59.46,59.46,0,0,1,2.93,7,4.13,4.13,0,0,0,3.24,2.55c2.63.7,5.27,1.4,7.87,2.24a4.36,4.36,0,0,1,2.25,1.52c2,3,5.15,4.12,8.29,4.94,2.64.68,3.84,2.28,4.78,4.53a7.66,7.66,0,0,0,1.59,2.37c1.77,1.83,4,1.75,6.21,1.1a20.32,20.32,0,0,1,12.6.29,14.1,14.1,0,0,0,3.47.66c3.3.25,5.89-1.6,8.54-3.15,1.55-.91,2.89-1.91,4.93-1.77,3.2.22,6.39.05,9-2.43a17.33,17.33,0,0,1,7.52-4.1l5.93-1.67c2.62-.73,3.82-2.71,4.63-5.11a37.89,37.89,0,0,1,2.44-6.17c1.95-3.57,4.06-7.07,6.32-10.46,1.43-2.16,1.32-4.12.43-6.4a15.4,15.4,0,0,1-.88-8.61,79.87,79.87,0,0,0,1.3-8.39,14.92,14.92,0,0,0-.48-5.66c-.65-2-2.06-3.66-3-5.55-1.14-2.34-2.64-4.74-1.9-7.46a25,25,0,0,0-.18-12.84,27.09,27.09,0,0,0-9.82-15.53,41.47,41.47,0,0,1-7.34-7c-1.78-2.23-3-5-5.8-6.32-2.22-1-4.37-2.26-6.9-.61a2.35,2.35,0,0,1-2.07-.5c-1.5-1.38-2.84-3-4.24-4.44-1.68-1.8-2.77-2-5-1.07a2.31,2.31,0,0,1-1.34.17,27.44,27.44,0,0,1-5.06-1.42,7.69,7.69,0,0,0-9.36,1.62c-2.56,2.49-5.24,4.75-9.08,4.71a29.39,29.39,0,0,1-4-.33c-1.89-.27-3.77-1-5.63-.9-4,.15-6.52,2.73-8.09,6.23-1,2.19-2.31,3.89-4.81,4.38-1.47.29-2.9.71-4.37,1A4.05,4.05,0,0,0,64.29,43a17.42,17.42,0,0,0-.6,3.34c-.31,2.52-.55,4.87-3.21,6.45a4.85,4.85,0,0,0-2.23,5.06,7.6,7.6,0,0,1-1.81,6.53c-4.26,4.41-4.18,9.53-3,15,1,5,1.48,10-1.76,14.59A4.25,4.25,0,0,0,52,100C54.8,102.83,56.63,106,56,109.74Z"></path> <path class="cls-2" d="M56,109.74c.65-3.71-1.18-6.91-4-9.78A4.25,4.25,0,0,1,51.63,94c3.24-4.58,2.78-9.59,1.76-14.59-1.13-5.5-1.21-10.62,3-15a7.6,7.6,0,0,0,1.81-6.53,4.85,4.85,0,0,1,2.23-5.06c2.66-1.58,2.9-3.93,3.21-6.45a17.42,17.42,0,0,1,.6-3.34,4.05,4.05,0,0,1,3.15-2.89c1.47-.28,2.9-.7,4.37-1,2.5-.49,3.83-2.19,4.81-4.38,1.57-3.5,4-6.08,8.09-6.23,1.86-.08,3.74.63,5.63.9a29.39,29.39,0,0,0,4,.33c3.84,0,6.52-2.22,9.08-4.71a7.69,7.69,0,0,1,9.36-1.62,27.44,27.44,0,0,0,5.06,1.42,2.31,2.31,0,0,0,1.34-.17c2.27-.94,3.36-.73,5,1.07,1.4,1.49,2.74,3.06,4.24,4.44a2.35,2.35,0,0,0,2.07.5c2.53-1.65,4.68-.43,6.9.61,2.8,1.31,4,4.09,5.8,6.32a41.47,41.47,0,0,0,7.34,7,27.09,27.09,0,0,1,9.82,15.53A25,25,0,0,1,160.54,73c-.74,2.72.76,5.12,1.9,7.46.93,1.89,2.34,3.58,3,5.55a14.92,14.92,0,0,1,.48,5.66,79.87,79.87,0,0,1-1.3,8.39,15.4,15.4,0,0,0,.88,8.61c.89,2.28,1,4.24-.43,6.4-2.26,3.39-4.37,6.89-6.32,10.46a37.89,37.89,0,0,0-2.44,6.17c-.81,2.4-2,4.38-4.63,5.11l-5.93,1.67a17.33,17.33,0,0,0-7.52,4.1c-2.59,2.48-5.78,2.65-9,2.43-2-.14-3.38.86-4.93,1.77-2.65,1.55-5.24,3.4-8.54,3.15a14.1,14.1,0,0,1-3.47-.66A20.32,20.32,0,0,0,99.7,149c-2.21.65-4.44.73-6.21-1.1a7.66,7.66,0,0,1-1.59-2.37c-.94-2.25-2.14-3.85-4.78-4.53-3.14-.82-6.3-1.93-8.29-4.94a4.36,4.36,0,0,0-2.25-1.52c-2.6-.84-5.24-1.54-7.87-2.24a4.13,4.13,0,0,1-3.24-2.55,59.46,59.46,0,0,0-2.93-7,9,9,0,0,0-2.93-3.29,6.59,6.59,0,0,1-3.33-5.25C56.17,112.9,56.1,111.56,56,109.74Zm32.62-8.63V101c-4.75,0-9.51-.08-14.26,0-1.79,0-3.68-.11-5.3,1.12a2.42,2.42,0,0,0-.62,3.72c1,1.27,2,2.53,2.88,3.84a70.77,70.77,0,0,0,14.5,15.37c4.73,3.69,10.25,5.26,16.11,6.14,6.66,1,12.94-.32,19-2.71A57.44,57.44,0,0,0,136.37,119c5.25-4.36,10.08-9.23,15-14a3,3,0,0,0,.39-2.37c-.08-.39-1-.86-1.56-.9-8.3-.52-16.59-1.15-24.9-1.39-6.08-.17-12.17.16-18.26.31S94.75,100.94,88.6,101.11Z"></path> <path class="cls-1" d="M88.6,101.11c6.15-.17,12.29-.35,18.44-.49s12.18-.48,18.26-.31c8.31.24,16.6.87,24.9,1.39.56,0,1.48.51,1.56.9a3,3,0,0,1-.39,2.37c-4.92,4.75-9.75,9.62-15,14a57.44,57.44,0,0,1-15.46,9.53c-6.06,2.39-12.34,3.71-19,2.71-5.86-.88-11.38-2.45-16.11-6.14a70.77,70.77,0,0,1-14.5-15.37c-.92-1.31-1.92-2.57-2.88-3.84a2.42,2.42,0,0,1,.62-3.72c1.62-1.23,3.51-1.07,5.3-1.12,4.75-.12,9.51,0,14.26,0ZM71,103.93l-.16.5c.59.77,1.21,1.51,1.78,2.29a77.82,77.82,0,0,0,13.74,14.81c6.55,5.35,14.26,6.88,22.35,6.63A36.31,36.31,0,0,0,119,125.82c6.23-2.14,11.4-6.17,16.49-10.18,3.16-2.48,6-5.38,9-8.1.9-.81,1.78-1.64,3-2.72a12.52,12.52,0,0,0-1.74-.41q-3-.16-6-.27c-8.76-.27-17.53-.64-26.3-.76-4.27,0-8.56.55-12.84.56-8.11,0-16.21-.18-24.32-.24C74.43,103.68,72.69,103.85,71,103.93Z"></path> <path class="cls-3" d="M71,103.93c1.73-.08,3.47-.25,5.2-.23,8.11.06,16.21.27,24.32.24,4.28,0,8.57-.61,12.84-.56,8.77.12,17.54.49,26.3.76q3,.1,6,.27a12.52,12.52,0,0,1,1.74.41c-1.17,1.08-2.05,1.91-3,2.72-3,2.72-5.8,5.62-9,8.1-5.09,4-10.26,8-16.49,10.18a36.31,36.31,0,0,1-10.33,2.34c-8.09.25-15.8-1.28-22.35-6.63a77.82,77.82,0,0,1-13.74-14.81c-.57-.78-1.19-1.52-1.78-2.29Z"></path> <path class="cls-4" d="M77.94,78.94c.14-1.47.27-2.76.37-4,.06-.84.08-1.67.12-2.51a.67.67,0,0,0-.44-.71,23.24,23.24,0,0,1-2.81-1.32,16.43,16.43,0,0,1-4.53-3.69,8.76,8.76,0,0,1-2.06-6.29,17.92,17.92,0,0,1,.79-4.51A7.43,7.43,0,0,1,72,52.18a9.07,9.07,0,0,1,3.68-1.78c.4-.07.8-.09,1.21-.13L79,50a.5.5,0,0,0,.52-.51q.09-1.43.21-2.85a2,2,0,0,1,.18-.69.53.53,0,0,1,.81-.24,1.57,1.57,0,0,0,.66.19c1,0,1.9-.08,2.85-.08a1.47,1.47,0,0,1,1.3.45.84.84,0,0,1,.18.49c0,.72-.15,1.43-.2,2.14a.5.5,0,0,0,.25.4c.9.33,1.81.6,2.71.93a10.73,10.73,0,0,1,1.39.62A29,29,0,0,1,93,52.67a7,7,0,0,1,2.63,3.65c.14.44.3.86.4,1.31a2.07,2.07,0,0,1-1,2.16,4,4,0,0,1-3.83.15c-1.23-.55-2.36-1.3-3.57-1.88a14.45,14.45,0,0,0-2.08-.68c-.32-.09-.53,0-.54.38,0,.82,0,1.64-.06,2.45,0,1.18,0,2.36-.09,3.54a.73.73,0,0,0,.58.79A17.69,17.69,0,0,1,90.06,67a17.22,17.22,0,0,1,1.84,1.69,19.72,19.72,0,0,1,2,2.07,15.17,15.17,0,0,1,1.9,3.44,8.69,8.69,0,0,1,.48,5.31,13.33,13.33,0,0,1-1.46,3.36c-1.67,3-4.52,4.14-7.71,4.69-.69.12-1.37.28-2,.42a1,1,0,0,0-.76.87c-.09.6-.15,1.21-.21,1.82s-.32.7-.86.65c-1.22-.11-2.45-.18-3.67-.29a5.74,5.74,0,0,1-1-.21.74.74,0,0,1-.5-1,3.78,3.78,0,0,0,.12-.75c0-.75,0-.76-.73-1a27.76,27.76,0,0,1-3.32-1.16,30.07,30.07,0,0,1-3.53-2,10.29,10.29,0,0,1-1.83-1.46,4.68,4.68,0,0,1-1.43-3,13,13,0,0,1-.22-1.61,4.05,4.05,0,0,1,.38-1.62,4.31,4.31,0,0,1,1.63-1.92,3.08,3.08,0,0,1,2.74-.14c.92.36,1.78.86,2.66,1.31a3.39,3.39,0,0,1,.5.34Zm6.84-32H81.92c-.91,0-1.1.22-1.17,1.11s-.13,1.53-.21,2.29a.58.58,0,0,1-.57.56c-.72.06-1.45.1-2.17.18a19.54,19.54,0,0,0-2.17.31A7.18,7.18,0,0,0,72.73,53a7.46,7.46,0,0,0-2.64,4.47,27.84,27.84,0,0,0-.35,3.65,7,7,0,0,0,1.57,4.63,14.85,14.85,0,0,0,2.41,2.41,12,12,0,0,0,5.1,2.68c.38.09.88.28.84.88-.09,1.09-.16,2.17-.24,3.26a19.4,19.4,0,0,0-.15,4.44.69.69,0,0,1-.59.82,1.4,1.4,0,0,1-1.2-.4c-1-.73-2-1.45-3.09-2.12a26.53,26.53,0,0,0-2.73-1.48,2.33,2.33,0,0,0-1.23-.15c-1.29.17-2.18,2.27-2.1,3.09a7.89,7.89,0,0,1,.17,1,4.32,4.32,0,0,0,1.47,3,6.53,6.53,0,0,0,1.84,1.35c1.33.71,2.69,1.38,4.07,2a19.08,19.08,0,0,0,2.37.72,1.54,1.54,0,0,0,.3,0,.84.84,0,0,1,.92,1c0,.37,0,.74-.07,1.12s.06.52.44.54c.86,0,1.72.13,2.58.2a.43.43,0,0,0,.51-.39c.15-.66.34-1.31.5-2s.34-.91,1.1-1,1.58-.27,2.38-.35A12.15,12.15,0,0,0,91.11,85a5.25,5.25,0,0,0,1.49-1.06,10.36,10.36,0,0,0,2.34-3.62,7.89,7.89,0,0,0,.52-3.62,10,10,0,0,0-2.33-5.27,17.26,17.26,0,0,0-5.9-5,17.92,17.92,0,0,0-2.51-1c-.78-.22-1-.39-1-1.21s.12-1.6.12-2.4c0-1.65-.06-3.3-.09-5,0-.51.33-.91.75-.83a11.27,11.27,0,0,1,1.93.44,14.76,14.76,0,0,1,3.4,1.74,4.87,4.87,0,0,0,3.49,1c1-.13,1.64-.73,1.47-1.68a6.45,6.45,0,0,0-2.27-4.07,15.35,15.35,0,0,0-5.12-2.62,22.13,22.13,0,0,0-2.18-.44,1,1,0,0,1-.69-1c.08-.65.18-1.29.26-1.93A3.32,3.32,0,0,0,84.78,46.9Z"></path> <path class="cls-5" d="M84.78,46.9a3.32,3.32,0,0,1,0,.6c-.08.64-.18,1.28-.26,1.93a1,1,0,0,0,.69,1,22.13,22.13,0,0,1,2.18.44,15.35,15.35,0,0,1,5.12,2.62,6.45,6.45,0,0,1,2.27,4.07c.17,1-.44,1.55-1.47,1.68a4.87,4.87,0,0,1-3.49-1,14.76,14.76,0,0,0-3.4-1.74A11.27,11.27,0,0,0,84.52,56c-.42-.08-.76.32-.75.83,0,1.65.08,3.3.09,5,0,.8-.08,1.6-.12,2.4s.2,1,1,1.21a17.92,17.92,0,0,1,2.51,1,17.26,17.26,0,0,1,5.9,5,10,10,0,0,1,2.33,5.27,7.89,7.89,0,0,1-.52,3.62,10.36,10.36,0,0,1-2.34,3.62A5.25,5.25,0,0,1,91.11,85a12.15,12.15,0,0,1-4.2,1.42c-.8.08-1.59.22-2.38.35s-.92.29-1.1,1-.35,1.32-.5,2a.43.43,0,0,1-.51.39c-.86-.07-1.72-.15-2.58-.2-.38,0-.46-.23-.44-.54s0-.75.07-1.12a.84.84,0,0,0-.92-1,1.54,1.54,0,0,1-.3,0,19.08,19.08,0,0,1-2.37-.72c-1.38-.61-2.74-1.28-4.07-2A6.53,6.53,0,0,1,70,83.14a4.32,4.32,0,0,1-1.47-3,7.89,7.89,0,0,0-.17-1c-.08-.82.81-2.92,2.1-3.09a2.33,2.33,0,0,1,1.23.15,26.53,26.53,0,0,1,2.73,1.48c1.06.67,2.07,1.39,3.09,2.12a1.4,1.4,0,0,0,1.2.4.69.69,0,0,0,.59-.82,19.4,19.4,0,0,1,.15-4.44c.08-1.09.15-2.17.24-3.26,0-.6-.46-.79-.84-.88a12,12,0,0,1-5.1-2.68,14.85,14.85,0,0,1-2.41-2.41,7,7,0,0,1-1.57-4.63,27.84,27.84,0,0,1,.35-3.65A7.46,7.46,0,0,1,72.73,53a7.18,7.18,0,0,1,2.9-1.61A19.54,19.54,0,0,1,77.8,51c.72-.08,1.45-.12,2.17-.18a.58.58,0,0,0,.57-.56c.08-.76.14-1.52.21-2.29s.26-1.09,1.17-1.11Zm4.77,30.16a1.47,1.47,0,0,0,0-.21c0-.1,0-.19-.08-.29a6.87,6.87,0,0,0-5.68-4.12c-.35,0-.61.09-.64.49-.08.85-.16,1.7-.22,2.56-.1,1.56-.18,3.12-.29,4.69a.74.74,0,0,0,.6.82,1.65,1.65,0,0,0,.78-.11c1.16-.29,2.33-.54,3.45-.91A2.93,2.93,0,0,0,89.55,77.06Zm-11-20.17a1.86,1.86,0,0,0-.46.24,5.53,5.53,0,0,0-1.78,3.64,2.27,2.27,0,0,0,.89,2c.39.3.73.66,1.13.93a1.31,1.31,0,0,0,.8.23c.13,0,.29-.35.32-.56s0-.64,0-1c.06-.8.12-1.6.21-2.39s.2-1.34.35-2a.75.75,0,0,0-.48-1C79.2,57,78.91,57,78.5,56.89Z"></path> <path class="cls-4" d="M89.55,77.06A2.93,2.93,0,0,1,87.47,80c-1.12.37-2.29.62-3.45.91a1.65,1.65,0,0,1-.78.11.74.74,0,0,1-.6-.82c.11-1.57.19-3.13.29-4.69.06-.86.14-1.71.22-2.56,0-.4.29-.48.64-.49a6.87,6.87,0,0,1,5.68,4.12c0,.1.06.19.08.29A1.47,1.47,0,0,1,89.55,77.06ZM83.9,78.65a2.83,2.83,0,0,0,0,.67c0,.12.22.3.31.28a18.2,18.2,0,0,0,2.84-.73,2,2,0,0,0,.82-3.09,7.33,7.33,0,0,0-3.13-2.1c-.47-.16-.6,0-.63.48C84,75.69,84,77.23,83.9,78.65Z"></path> <path class="cls-4" d="M78.5,56.89c.41.07.7.09,1,.17A.75.75,0,0,1,80,58c-.15.67-.26,1.34-.35,2s-.15,1.59-.21,2.39c0,.32,0,.65,0,1s-.19.55-.32.56a1.31,1.31,0,0,1-.8-.23c-.4-.27-.74-.63-1.13-.93a2.27,2.27,0,0,1-.89-2A5.53,5.53,0,0,1,78,57.13,1.86,1.86,0,0,1,78.5,56.89Zm.2,1.51c-.16.06-.24.07-.27.11a3.65,3.65,0,0,0-.93,3,.9.9,0,0,0,.83.76Z"></path> <path class="cls-4" d="M131.26,78.94c.14-1.47.27-2.76.37-4,.06-.84.09-1.67.12-2.51a.67.67,0,0,0-.44-.71,23.24,23.24,0,0,1-2.81-1.32A16.43,16.43,0,0,1,124,66.67a8.76,8.76,0,0,1-2.06-6.29,17.92,17.92,0,0,1,.79-4.51,7.49,7.49,0,0,1,2.62-3.69A9.13,9.13,0,0,1,129,50.4c.4-.07.81-.09,1.21-.13.71-.08,1.42-.15,2.12-.24a.5.5,0,0,0,.52-.51c.06-1,.13-1.9.22-2.85a2,2,0,0,1,.17-.69.53.53,0,0,1,.81-.24,1.57,1.57,0,0,0,.66.19c.95,0,1.9-.08,2.85-.08a1.47,1.47,0,0,1,1.3.45.84.84,0,0,1,.18.49c0,.72-.15,1.43-.2,2.14a.5.5,0,0,0,.25.4c.9.33,1.81.6,2.71.93a10.73,10.73,0,0,1,1.39.62,29.14,29.14,0,0,1,3.13,1.79,7.07,7.07,0,0,1,2.62,3.65c.14.44.3.86.4,1.31a2.07,2.07,0,0,1-1,2.16,4,4,0,0,1-3.83.15c-1.22-.55-2.36-1.3-3.57-1.88a14.45,14.45,0,0,0-2.08-.68c-.32-.09-.53,0-.54.38,0,.82,0,1.64-.06,2.45,0,1.18,0,2.36-.08,3.54a.72.72,0,0,0,.57.79A17.54,17.54,0,0,1,143.38,67a17.22,17.22,0,0,1,1.84,1.69,19.72,19.72,0,0,1,2,2.07,15.17,15.17,0,0,1,1.9,3.44,8.62,8.62,0,0,1,.48,5.31,13,13,0,0,1-1.46,3.36c-1.67,3-4.52,4.14-7.71,4.69-.69.12-1.37.28-2,.42a1,1,0,0,0-.76.87c-.09.6-.15,1.21-.21,1.82s-.32.7-.85.65c-1.23-.11-2.46-.18-3.68-.29a5.74,5.74,0,0,1-1-.21.75.75,0,0,1-.5-1,3.78,3.78,0,0,0,.12-.75c0-.75,0-.76-.72-1a27.31,27.31,0,0,1-3.33-1.16,31.79,31.79,0,0,1-3.53-2,10.29,10.29,0,0,1-1.83-1.46,4.73,4.73,0,0,1-1.43-3,11.27,11.27,0,0,1-.21-1.61,3.88,3.88,0,0,1,.37-1.62,4.37,4.37,0,0,1,1.63-1.92,3.09,3.09,0,0,1,2.74-.14c.92.36,1.78.86,2.66,1.31a3.39,3.39,0,0,1,.5.34Zm6.85-32h-2.86c-.92,0-1.11.22-1.18,1.11s-.13,1.53-.21,2.29a.58.58,0,0,1-.56.56c-.73.06-1.46.1-2.18.18a19.36,19.36,0,0,0-2.16.31A7.15,7.15,0,0,0,126.05,53a7.46,7.46,0,0,0-2.64,4.47,27.84,27.84,0,0,0-.35,3.65,7,7,0,0,0,1.57,4.63A14.85,14.85,0,0,0,127,68.12a12,12,0,0,0,5.1,2.68c.39.09.88.28.84.88-.08,1.09-.16,2.17-.23,3.26a18.33,18.33,0,0,0-.15,4.44.71.71,0,0,1-.6.82,1.4,1.4,0,0,1-1.2-.4c-1-.73-2-1.45-3.09-2.12A26.53,26.53,0,0,0,125,76.2a2.32,2.32,0,0,0-1.23-.15c-1.28.17-2.18,2.27-2.1,3.09a7.89,7.89,0,0,1,.17,1,4.36,4.36,0,0,0,1.47,3,6.53,6.53,0,0,0,1.84,1.35c1.33.71,2.69,1.38,4.07,2a19.08,19.08,0,0,0,2.37.72,1.55,1.55,0,0,0,.31,0c.66,0,.94.35.91,1,0,.37,0,.74-.07,1.12s.06.52.44.54c.86,0,1.72.13,2.59.2.29,0,.43-.1.5-.39.15-.66.34-1.31.5-2s.34-.91,1.1-1,1.59-.27,2.38-.35a12.15,12.15,0,0,0,4.2-1.42,5.25,5.25,0,0,0,1.49-1.06,10.36,10.36,0,0,0,2.34-3.62,7.89,7.89,0,0,0,.52-3.62,10,10,0,0,0-2.33-5.27,17.17,17.17,0,0,0-5.9-5,17.92,17.92,0,0,0-2.51-1c-.78-.22-1-.39-1-1.21s.13-1.6.12-2.4c0-1.65-.06-3.3-.09-5,0-.51.33-.91.75-.83a11.27,11.27,0,0,1,1.93.44,14.76,14.76,0,0,1,3.4,1.74,4.89,4.89,0,0,0,3.49,1c1-.13,1.64-.73,1.47-1.68a6.45,6.45,0,0,0-2.27-4.07,15.4,15.4,0,0,0-5.11-2.62c-.71-.21-1.46-.3-2.19-.44a1,1,0,0,1-.69-1c.08-.65.18-1.29.26-1.93A4.36,4.36,0,0,0,138.11,46.9Z"></path> <path class="cls-5" d="M138.11,46.9a4.36,4.36,0,0,1,0,.6c-.08.64-.18,1.28-.26,1.93a1,1,0,0,0,.69,1c.73.14,1.48.23,2.19.44a15.4,15.4,0,0,1,5.11,2.62,6.45,6.45,0,0,1,2.27,4.07c.17,1-.44,1.55-1.47,1.68a4.89,4.89,0,0,1-3.49-1,14.76,14.76,0,0,0-3.4-1.74,11.27,11.27,0,0,0-1.93-.44c-.42-.08-.76.32-.75.83,0,1.65.09,3.3.09,5,0,.8-.08,1.6-.12,2.4s.2,1,1,1.21a17.92,17.92,0,0,1,2.51,1,17.17,17.17,0,0,1,5.9,5,10,10,0,0,1,2.33,5.27,7.89,7.89,0,0,1-.52,3.62,10.36,10.36,0,0,1-2.34,3.62A5.25,5.25,0,0,1,144.43,85a12.15,12.15,0,0,1-4.2,1.42c-.79.08-1.58.22-2.38.35s-.92.29-1.1,1-.35,1.32-.5,2c-.07.29-.21.41-.5.39-.87-.07-1.73-.15-2.59-.2-.38,0-.46-.23-.44-.54s.06-.75.07-1.12c0-.67-.25-1-.91-1a1.55,1.55,0,0,1-.31,0,19.08,19.08,0,0,1-2.37-.72c-1.38-.61-2.74-1.28-4.07-2a6.53,6.53,0,0,1-1.84-1.35,4.36,4.36,0,0,1-1.47-3,7.89,7.89,0,0,0-.17-1c-.08-.82.82-2.92,2.1-3.09a2.32,2.32,0,0,1,1.23.15,26.53,26.53,0,0,1,2.73,1.48c1.06.67,2.07,1.39,3.09,2.12a1.4,1.4,0,0,0,1.2.4.71.71,0,0,0,.6-.82,18.33,18.33,0,0,1,.15-4.44c.07-1.09.15-2.17.23-3.26,0-.6-.45-.79-.84-.88a12,12,0,0,1-5.1-2.68,14.85,14.85,0,0,1-2.41-2.41,7,7,0,0,1-1.57-4.63,27.84,27.84,0,0,1,.35-3.65A7.46,7.46,0,0,1,126.05,53,7.15,7.15,0,0,1,129,51.35a19.36,19.36,0,0,1,2.16-.31c.72-.08,1.45-.12,2.18-.18a.58.58,0,0,0,.56-.56c.08-.76.14-1.52.21-2.29s.26-1.09,1.18-1.11Zm4.76,30.16a1.47,1.47,0,0,0,0-.21c0-.1-.05-.19-.08-.29a6.88,6.88,0,0,0-5.67-4.12c-.35,0-.62.09-.65.49-.08.85-.16,1.7-.22,2.56-.1,1.56-.17,3.12-.28,4.69a.73.73,0,0,0,.6.82,1.62,1.62,0,0,0,.77-.11c1.16-.29,2.33-.54,3.46-.91A2.94,2.94,0,0,0,142.87,77.06Zm-11-20.17a1.74,1.74,0,0,0-.47.24,5.53,5.53,0,0,0-1.78,3.64,2.27,2.27,0,0,0,.89,2c.39.3.73.66,1.14.93a1.26,1.26,0,0,0,.79.23c.13,0,.29-.35.32-.56s0-.64,0-1c.06-.8.12-1.6.22-2.39a20.13,20.13,0,0,1,.35-2,.75.75,0,0,0-.49-1C132.52,57,132.23,57,131.83,56.89Z"></path> <path class="cls-4" d="M142.87,77.06A2.94,2.94,0,0,1,140.8,80c-1.13.37-2.3.62-3.46.91a1.62,1.62,0,0,1-.77.11.73.73,0,0,1-.6-.82c.11-1.57.18-3.13.28-4.69.06-.86.14-1.71.22-2.56,0-.4.3-.48.65-.49a6.88,6.88,0,0,1,5.67,4.12c0,.1.06.19.08.29A1.47,1.47,0,0,1,142.87,77.06Zm-5.65,1.59a2.83,2.83,0,0,0,0,.67c0,.12.23.3.31.28a18.61,18.61,0,0,0,2.85-.73,2,2,0,0,0,.81-3.09,7.36,7.36,0,0,0-3.12-2.1c-.48-.16-.61,0-.64.48C137.37,75.69,137.29,77.23,137.22,78.65Z"></path> <path class="cls-4" d="M131.83,56.89c.4.07.69.09,1,.17a.75.75,0,0,1,.49,1,20.13,20.13,0,0,0-.35,2c-.1.79-.16,1.59-.22,2.39,0,.32.05.65,0,1s-.19.55-.32.56a1.26,1.26,0,0,1-.79-.23c-.41-.27-.75-.63-1.14-.93a2.27,2.27,0,0,1-.89-2,5.53,5.53,0,0,1,1.78-3.64A1.74,1.74,0,0,1,131.83,56.89ZM132,58.4c-.16.06-.23.07-.27.11a3.65,3.65,0,0,0-.93,3,.9.9,0,0,0,.83.76Z"></path> </svg> 